<svg
    width="20"
    height="20"
    viewBox="0 0 20 20"
    fill="none"
    xmlns="http://www.w3.org/2000/svg"
>
    <path
        d="M17.5436 9.58333L17.7756 8.19984C17.9271 7.29523 18.003 6.84293 17.7602 6.54647C17.5174 6.25 17.0711 6.25 16.1786 6.25H3.82135C2.92882 6.25 2.48256 6.25 2.23975 6.54647C1.99695 6.84293 2.07277 7.29523 2.22442 8.19984L3.22739 14.1828C3.55982 16.1659 3.72604 17.1574 4.40469 17.7454C5.08334 18.3333 6.06161 18.3333 8.01816 18.3333H9.99998"
        stroke="white"
        stroke-width="1.5"
        stroke-linecap="round"
    ></path>
    <path
        d="M11.6667 15H18.3334M15 18.3333V11.6667"
        stroke="white"
        stroke-width="1.5"
        stroke-linecap="round"
    ></path>
    <path
        d="M14.5834 6.25002C14.5834 3.71871 12.5314 1.66669 10 1.66669C7.46871 1.66669 5.41669 3.71871 5.41669 6.25002"
        stroke="white"
        stroke-width="1.5"
    ></path>
</svg>